<svg width="919" height="234" viewBox="0 0 919 234" fill="none" xmlns="http://www.w3.org/2000/svg">
<path d="M588.646 1.60301C583.92 3.7341 578.361 9.84941 577.156 14.3896C575.674 19.7636 575.767 147.073 577.249 152.169C578.824 157.451 585.588 164.029 590.962 165.512C594.113 166.438 610.698 166.624 660.918 166.438L726.704 166.16L731.151 163.566C734.116 161.806 736.34 159.489 738.286 156.154L741.065 151.335L740.88 82.2139L740.602 13.185L738.008 9.29347C736.618 7.16238 733.745 4.29004 731.614 2.90019L727.723 0.305832L660.084 0.120514C596.151 -0.157455 592.167 -0.0648041 588.646 1.60301ZM696.127 10.1274C702.798 13.463 706.227 19.3003 706.134 26.9908C706.134 30.4191 705.393 34.5886 704.281 37.3683C703.262 39.87 691.68 58.2159 678.43 78.137C665.18 97.9654 654.061 114.736 653.69 115.292C652.393 117.516 668.793 114.458 684.823 109.455C693.162 106.86 696.22 106.304 697.332 107.046C698.721 107.88 698.907 110.103 698.907 125.67C698.907 137.437 698.536 143.738 697.888 144.386C694.83 147.444 662.03 153.652 645.629 154.3C631.36 154.856 624.041 153.559 616.999 149.204C608.474 144.016 605.417 136.974 606.992 126.874C608.567 116.126 612.551 109.269 641.831 66.277C649.428 55.2509 654.432 47.0972 653.598 47.0972C652.949 47.0972 644.61 48.765 635.067 50.8034C615.146 55.0656 613.663 55.2509 612.273 52.5639C610.791 49.7842 612.088 17.8178 613.756 16.428C614.404 15.9647 625.708 13.8336 638.866 11.8878C652.023 9.94206 664.068 8.18159 665.55 7.90364C667.126 7.62567 673.519 7.533 679.912 7.62567C690.475 7.71832 691.958 7.90364 696.127 10.1274Z" fill="#004AAD"/>
<path d="M616.902 21.2463C616.902 21.7096 617.366 21.8949 617.829 21.617C618.385 21.339 618.755 20.8757 618.755 20.5977C618.755 20.4124 618.385 20.2271 617.829 20.2271C617.366 20.2271 616.902 20.6904 616.902 21.2463Z" fill="#004AAD"/>
<path d="M632.285 34.7737C631.266 35.7929 631.729 36.9048 633.119 36.9048C633.86 36.9048 634.509 36.5342 634.509 36.0709C634.509 34.8663 633.026 34.0324 632.285 34.7737Z" fill="#004AAD"/>
<path d="M637.289 36.4417C636.547 37.2756 636.547 37.8315 637.103 37.8315C638.215 37.8315 639.512 36.0711 638.864 35.4225C638.678 35.2372 637.937 35.6078 637.289 36.4417Z" fill="#004AAD"/>
<path d="M644.514 36.6271C645.07 36.8124 646.182 36.8124 646.83 36.6271C647.386 36.3492 646.923 36.1638 645.626 36.1638C644.328 36.1638 643.865 36.3492 644.514 36.6271Z" fill="#004AAD"/>
<path d="M636.359 40.6115C636.359 41.0748 636.823 41.5381 637.286 41.5381C637.842 41.5381 638.212 41.0748 638.212 40.6115C638.212 40.0556 637.842 39.685 637.286 39.685C636.823 39.685 636.359 40.0556 636.359 40.6115Z" fill="#004AAD"/>
<path d="M639.141 40.6115C639.141 41.0748 639.604 41.5381 640.067 41.5381C640.623 41.5381 640.994 41.0748 640.994 40.6115C640.994 40.0556 640.623 39.685 640.067 39.685C639.604 39.685 639.141 40.0556 639.141 40.6115Z" fill="#004AAD"/>
<path d="M644.885 42.0013C643.865 43.2058 644.051 43.3911 646.182 43.3911C648.22 43.3911 648.498 43.2058 647.479 42.0013C646.089 40.3335 646.367 40.3335 644.885 42.0013Z" fill="#004AAD"/>
<path d="M29.4628 5.86538C16.3057 14.853 6.02083 27.269 2.59255 38.3877C-2.96682 56.5483 0.646769 72.9485 11.2096 77.7666C26.8685 84.8085 43.6392 69.9835 37.3386 54.6952C34.7442 48.5799 30.3894 45.1516 23.6255 43.9471C20.5679 43.3911 20.1972 43.0205 20.7532 41.26C23.0696 33.3843 30.2041 25.1379 40.3963 18.6519C45.1217 15.5943 45.3071 15.3163 44.0099 13.4632C43.2686 12.3513 41.3228 9.201 39.7477 6.51398C38.0799 3.9196 36.4121 1.69585 36.1341 1.69585C35.7635 1.69585 32.7985 3.64163 29.4628 5.86538Z" fill="#004AAD"/>
<path d="M81.2565 5.49487C78.0136 7.62596 71.9909 12.7221 67.9141 16.8916C56.0541 28.9369 51.6992 39.3144 51.6992 55.6219C51.6992 63.127 52.0698 64.9801 54.1083 69.2423C57.3512 75.6356 61.7987 78.6006 69.2112 79.2492C73.9367 79.7125 75.5119 79.4345 79.6814 77.3961C86.1673 74.1531 89.0397 69.9836 89.5029 62.8491C90.2442 53.1202 85.5187 46.6342 76.0678 44.2252C73.4734 43.5766 72.0836 42.65 72.0836 41.7234C72.0836 36.5347 82.6464 24.1188 91.5414 18.7447C94.0431 17.2622 96.1742 15.7797 96.1742 15.4091C96.1742 14.6678 87.9278 1.69597 87.4645 1.69597C87.2792 1.69597 84.4995 3.45644 81.2565 5.49487Z" fill="#004AAD"/>
<path d="M230.713 9.01585C221.91 12.0735 214.127 20.1346 211.533 28.7516C209.494 35.7935 209.494 131.507 211.533 138.549C213.293 144.479 217.37 150.039 222.837 154.023C231.361 160.231 230.62 160.138 300.297 160.138H363.026V144.85V129.562H301.873H240.719V114.273V98.985H301.873H363.026V83.6967V68.4085H301.873H240.719V53.1202V37.8319H301.873H363.026V22.5437V7.25539H299.371C240.071 7.34804 235.253 7.44069 230.713 9.01585Z" fill="#004AAD"/>
<path d="M417.23 8.55267C408.706 11.2397 402.59 16.4285 398.421 24.3969L395.919 29.0297L395.641 94.5376L395.363 160.138H410.281H425.106V129.562V98.9851H471.434H517.762V129.562V160.138H532.587H547.412L547.227 94.5376L546.949 29.0297L544.818 24.6749C541.945 18.8375 535.923 13.0002 529.807 10.1278L524.711 7.71877L472.824 7.53345C432.796 7.34814 420.102 7.62611 417.23 8.55267ZM517.762 53.1203V68.4086H471.434H425.106V53.1203V37.832H471.434H517.762V53.1203Z" fill="#004AAD"/>
<path d="M766.267 22.2658L766.545 37.3687L816.858 37.832L867.077 38.2953L818.34 86.9398C791.562 113.717 769.047 136.789 768.306 138.271C764.136 145.962 768.862 156.803 777.293 159.212C779.239 159.768 807.407 160.138 849.658 160.138H918.965V144.85V129.562H868.745H818.433L867.726 80.1759C894.874 53.1203 917.482 29.6783 917.946 28.2884C920.447 21.8025 918.409 14.5753 912.849 10.4058L909.421 7.71875L837.705 7.44078L766.082 7.25548L766.267 22.2658Z" fill="#004AAD"/>
<path d="M106.739 84.9937C104.608 85.9203 101.736 88.3293 100.253 90.1825C98.0297 93.1475 97.5664 94.7226 97.2884 100.282C97.1031 105.749 97.3811 107.509 99.1416 110.567C101.458 114.644 107.759 118.443 112.113 118.443C115.449 118.443 115.449 120.203 112.299 126.596C109.704 131.785 101.273 140.124 94.7867 144.016C92.4703 145.313 90.6172 146.795 90.6172 147.351C90.6172 147.815 92.4703 151.15 94.7867 154.671L98.9562 161.064L102.848 158.655C114.522 151.336 124.715 140.865 129.625 131.229C134.814 120.852 136.575 106.212 133.702 96.5757C132.22 91.5723 127.216 85.9203 122.769 84.2525C118.692 82.6773 111.002 83.0479 106.739 84.9937Z" fill="#004AAD"/>
<path d="M159.272 84.1596C154.917 86.0127 151.488 89.163 149.821 92.8693C147.875 97.1314 147.504 103.988 149.079 107.972C151.118 113.532 157.882 118.442 163.348 118.442C171.039 118.442 157.974 137.344 145.373 144.479C143.335 145.591 141.574 146.888 141.574 147.166C141.574 147.536 143.52 150.779 145.836 154.393C148.431 158.562 150.469 160.786 151.118 160.416C163.904 153.003 176.228 140.865 180.86 131.136C184.752 122.797 186.049 116.867 186.049 106.49C186.049 99.6332 185.679 97.6874 183.64 93.5179C180.212 86.6613 175.672 83.7889 167.611 83.511C164.275 83.3257 160.476 83.6963 159.272 84.1596Z" fill="#004AAD"/>
<path d="M687.507 178.762C680.28 182.375 676.203 189.88 676.203 199.517C676.203 209.06 680.373 215.917 688.526 220.086L692.14 221.847L688.434 222.959C684.357 224.256 683.152 226.016 684.635 228.889C685.469 230.557 686.21 230.649 690.935 230.093C695.476 229.537 696.773 229.815 699.738 231.576C704.463 234.355 712.339 234.448 717.342 231.854C721.975 229.537 723.365 227.406 721.975 225.275C720.493 222.866 718.269 222.773 715.489 224.905C712.339 227.406 709.189 227.314 703.166 224.905L698.441 222.866L703.629 220.735C712.432 217.121 717.25 211.191 718.454 202.111C719.659 192.66 714.285 182.19 706.409 178.576C701.128 176.167 692.603 176.26 687.507 178.762ZM703.815 186.082C711.783 190.992 712.617 204.613 705.297 211.006C702.517 213.508 701.406 213.878 696.958 213.878C692.325 213.878 691.399 213.508 688.712 210.821C683.338 205.447 682.504 196.83 686.581 189.973C690.102 184.228 697.885 182.468 703.815 186.082Z" fill="black"/>
<path d="M735.039 178.392C733.649 179.689 733.464 181.82 733.834 194.328C734.112 207.671 734.298 209.061 736.429 212.952C741.895 222.774 756.628 224.442 764.411 216.103C768.302 211.84 768.858 209.153 768.858 193.587C768.858 177.928 768.302 175.983 764.411 177.28C761.817 178.021 761.446 180.245 761.446 194.699C761.446 201.741 760.983 208.32 760.519 209.339C758.296 213.323 751.439 214.991 746.714 212.582C742.637 210.451 741.988 207.671 741.988 193.031C741.988 182.19 741.71 179.503 740.506 178.299C738.652 176.353 736.985 176.446 735.039 178.392Z" fill="black"/>
<path d="M797.121 178.391C793.045 180.522 789.338 184.228 787.115 188.398C784.428 193.309 784.335 204.428 786.837 209.246C795.361 225.553 816.394 226.202 824.64 210.265C830.756 198.59 826.216 183.673 814.911 178.298C810.742 176.353 800.92 176.353 797.121 178.391ZM813.336 186.638C817.321 190.066 818.896 193.587 818.896 199.053C818.896 208.412 813.985 213.878 805.738 213.878C794.064 213.878 788.412 197.293 796.936 188.027C801.198 183.487 808.703 182.839 813.336 186.638Z" fill="black"/>
<path d="M840.389 177.928C839.741 178.577 839.277 179.689 839.277 180.523C839.277 183.21 841.408 184.229 847.338 184.229H853.176V201.741C853.176 216.103 853.454 219.438 854.566 220.365C856.511 221.94 860.218 220.735 860.959 218.326C861.237 217.122 861.515 208.968 861.515 200.166V184.229H866.518C872.912 184.229 874.487 183.58 874.487 181.079C874.487 177.187 873.097 176.816 856.882 176.816C846.134 176.816 841.13 177.187 840.389 177.928Z" fill="black"/>
<path d="M891.35 177.928C890.516 178.762 890.238 184.692 890.238 199.054C890.238 213.416 890.516 219.346 891.35 220.18C892.091 220.921 896.354 221.292 904.6 221.292C916.645 221.292 918.962 220.736 918.962 217.956C918.962 214.806 916.182 213.879 906.824 213.879H897.651V208.412V202.946L905.527 202.668C911.457 202.39 913.773 201.926 914.977 200.629C916.275 199.425 916.367 198.683 915.626 197.386C914.792 196.089 912.939 195.718 906.082 195.533L897.651 195.255V189.788V184.229H907.194C916.645 184.229 918.962 183.58 918.962 180.893C918.962 180.245 918.313 179.04 917.479 178.299C916.367 177.095 913.773 176.817 904.229 176.817C896.354 176.817 892.091 177.187 891.35 177.928Z" fill="black"/>
</svg>
